<?xml version="1.0" encoding="utf-8"?><!-- Uploaded to: SVG Repo, www.svgrepo.com, Generator: SVG Repo Mixer Tools -->
<svg fill="#000000" width="800px" height="800px" viewBox="0 0 24 24" id="coffee-left-3" data-name="Flat Line" xmlns="http://www.w3.org/2000/svg" class="icon flat-line"><path id="secondary" d="M7.81,21a1,1,0,0,1-1-.81A61,61,0,0,1,6,10,1,1,0,0,1,7,9h8a1,1,0,0,1,1,1,61,61,0,0,1-.83,10.18,1,1,0,0,1-1,.81Z" style="fill: rgb(44, 169, 188); stroke-width: 2;"></path><path id="primary" d="M15.86,16l2.44-.6A2.25,2.25,0,0,0,20,13.25h0A2.25,2.25,0,0,0,17.75,11H16.2" style="fill: none; stroke: rgb(0, 0, 0); stroke-linecap: round; stroke-linejoin: round; stroke-width: 2;"></path><path id="primary-2" data-name="primary" d="M15,3V5M11,3V5M7,3V5M3,21H21M7.81,21a1,1,0,0,1-1-.81A61,61,0,0,1,6,10,1,1,0,0,1,7,9h8a1,1,0,0,1,1,1,61,61,0,0,1-.83,10.18,1,1,0,0,1-1,.81Z" style="fill: none; stroke: rgb(0, 0, 0); stroke-linecap: round; stroke-linejoin: round; stroke-width: 2;"></path></svg>